<?xml version="1.0" encoding="UTF-8"?>
<svg version="1.1" xmlns="http://www.w3.org/2000/svg" width="500" height="500">
<path d="M0 0 C2.8473858 0.01070263 5.6941373 0.00004897 8.54150391 -0.01269531 C24.07865288 -0.02563649 39.25746647 1.12746427 54.48291016 4.38574219 C55.47645508 4.5974707 56.47 4.80919922 57.49365234 5.02734375 C73.62031738 8.60489721 89.43122535 13.37722365 104.54541016 20.07324219 C105.39071289 20.44610352 106.23601562 20.81896484 107.10693359 21.203125 C111.44156243 23.21791455 111.44156243 23.21791455 112.98291016 24.26074219 C114.20056566 27.9137087 113.71057219 28.43377777 112.04858398 31.77294922 C111.60094193 32.68464874 111.15329987 33.59634827 110.6920929 34.53567505 C110.1963829 35.52002533 109.70067291 36.50437561 109.18994141 37.51855469 C108.43628548 39.044991 108.43628548 39.044991 107.66740417 40.6022644 C106.05269162 43.86812228 104.42451856 47.12704503 102.79541016 50.38574219 C101.18695773 53.62434053 99.58129808 56.86430449 97.97697449 60.10494995 C96.9771556 62.12217595 95.97446907 64.13798403 94.96846008 66.15213013 C92.81918303 70.46834012 90.69084518 74.7943252 88.6574707 79.16650391 C88.33836227 79.849133 88.01925385 80.53176208 87.69047546 81.2350769 C86.50012077 84.64290392 86.7230509 87.6876774 86.98291016 91.26074219 C87.97291016 91.28652344 88.96291016 91.31230469 89.98291016 91.33886719 C98.10317025 91.64628144 105.24399375 91.92487795 111.49853516 97.64746094 C115.35953536 101.87459047 116.72593388 105.99078512 117.35791016 111.57324219 C116.7457908 117.59241585 114.73065199 123.05367923 110.17041016 127.19824219 C104.69384026 130.74190506 99.7227797 131.86463089 93.31884766 130.92480469 C87.31463207 129.21792066 82.62238206 125.61535937 79.29541016 120.38574219 C78.53228516 119.35449219 77.76916016 118.32324219 76.98291016 117.26074219 C73.88614743 117.00002516 73.88614743 117.00002516 70.98291016 117.26074219 C70.55993652 118.06910522 70.55993652 118.06910522 70.12841797 118.89379883 C68.83126057 121.370987 67.53209931 123.84711903 66.23291016 126.32324219 C65.78947266 127.17080078 65.34603516 128.01835937 64.88916016 128.89160156 C62.34425583 133.7381473 59.73199504 138.52692078 56.98291016 143.26074219 C55.82791016 142.86886719 54.67291016 142.47699219 53.48291016 142.07324219 C51.64965425 141.46884063 49.81630799 140.86471309 47.98291016 140.26074219 C46.21947266 139.66326172 46.21947266 139.66326172 44.42041016 139.05371094 C16.25189509 129.68916852 -11.59117253 129.94683843 -39.55224609 140.05371094 C-43.01708984 141.26074219 -43.01708984 141.26074219 -45.01708984 141.26074219 C-46.87582806 137.33145782 -48.72701709 133.398734 -50.57128906 129.46264648 C-51.19975735 128.12410961 -51.8302791 126.78653488 -52.46289062 125.44995117 C-53.37179353 123.52869881 -54.27325764 121.6041084 -55.17333984 119.67871094 C-55.71796875 118.52137451 -56.26259766 117.36403809 -56.82373047 116.17163086 C-58.01708984 113.26074219 -58.01708984 113.26074219 -58.01708984 110.26074219 C-57.07607422 110.22335938 -56.13505859 110.18597656 -55.16552734 110.14746094 C-53.92029297 110.08171875 -52.67505859 110.01597656 -51.39208984 109.94824219 C-50.16232422 109.89023438 -48.93255859 109.83222656 -47.66552734 109.77246094 C-43.85182149 109.23756215 -41.34652589 108.14386345 -38.01708984 106.26074219 C-37.27458984 105.95136719 -36.53208984 105.64199219 -35.76708984 105.32324219 C-33.48844533 103.93977945 -33.00005044 102.71814368 -32.01708984 100.26074219 C-31.66646484 99.49761719 -31.31583984 98.73449219 -30.95458984 97.94824219 C-28.74698076 91.61976282 -28.69959905 86.4660454 -31.01708984 80.26074219 C-34.24734164 73.92447904 -39.3780489 70.47375584 -46.01708984 68.26074219 C-53.26203043 67.22363413 -59.08800842 69.02280793 -65.01708984 73.26074219 C-66.85737236 75.31351094 -68.38286996 77.36215802 -69.86083984 79.68652344 C-70.24240234 80.20601563 -70.62396484 80.72550781 -71.01708984 81.26074219 C-71.67708984 81.26074219 -72.33708984 81.26074219 -73.01708984 81.26074219 C-77.71278754 71.6079434 -82.37642076 61.94009603 -87.01708984 52.26074219 C-87.34153076 51.58499146 -87.66597168 50.90924072 -88.00024414 50.2130127 C-89.87395803 46.30814777 -91.73637856 42.39825502 -93.58267212 38.48034668 C-94.16318567 37.25222863 -94.74714525 36.02573347 -95.33456421 34.80090332 C-96.15345845 33.09144519 -96.95866593 31.37545071 -97.76318359 29.65917969 C-98.22394287 28.6864209 -98.68470215 27.71366211 -99.15942383 26.71142578 C-100.01708984 24.26074219 -100.01708984 24.26074219 -99.01708984 21.26074219 C-97.44848633 20.296875 -97.44848633 20.296875 -95.38818359 19.46386719 C-94.6128125 19.14836914 -93.83744141 18.83287109 -93.03857422 18.5078125 C-92.18585938 18.1787793 -91.33314453 17.84974609 -90.45458984 17.51074219 C-89.56707031 17.16366211 -88.67955078 16.81658203 -87.76513672 16.45898438 C-70.74213626 9.96756262 -53.02459893 5.07956152 -35.01708984 2.26074219 C-33.90060059 2.08269043 -32.78411133 1.90463867 -31.63378906 1.72119141 C-21.07437397 0.20925381 -10.65791483 -0.04749028 0 0 Z " fill="#363489" transform="translate(246.01708984375,-0.2607421875)"/>
<path d="M0 0 C1.32763672 2.14770508 1.32763672 2.14770508 2.6796875 5.01953125 C3.19015625 6.09211182 3.700625 7.16469238 4.2265625 8.26977539 C4.77054688 9.43887451 5.31453125 10.60797363 5.875 11.8125 C6.44691949 13.01797035 7.01985112 14.22296098 7.59375 15.42749023 C10.3571257 21.24904574 13.05694131 27.09705792 15.68753052 32.97981262 C16.8400782 35.55614139 18.00312789 38.12768655 19.16558838 40.69955444 C19.98959348 42.53926593 20.79357949 44.38689442 21.59716797 46.2355957 C22.35344482 47.91528442 22.35344482 47.91528442 23.125 49.62890625 C23.77855469 51.1149939 23.77855469 51.1149939 24.4453125 52.63110352 C26.3128557 55.47670208 27.77897843 56.0778199 31 57 C34.08329205 54.73287349 36.48673539 52.4450641 38.8125 49.4375 C42.00428059 45.6513317 45.10665012 43.83784133 50 43 C55.55048181 42.86807004 60.33806823 43.89204549 65 47 C69.84335026 51.79787279 72.13447275 55.35198342 72.25 62.3125 C72.17663315 68.49977114 70.72970986 71.93395767 66.75 76.6875 C60.73832791 81.74276972 56.09736032 82.32810169 48.453125 82.0078125 C45.86083148 81.86902982 45.86083148 81.86902982 43 83 C41.49009607 89.21725147 42.62041876 92.38744357 45.6875 97.875 C46.43073451 99.2833021 47.17293005 100.69215303 47.9140625 102.1015625 C48.2740332 102.77219727 48.63400391 103.44283203 49.00488281 104.13378906 C50.25469507 106.47764699 51.43572386 108.84461263 52.5625 111.25 C53.02849609 112.21679688 53.02849609 112.21679688 53.50390625 113.203125 C54.1903468 115.68944511 54.16741709 116.66516583 53 119 C50.78692403 120.48536628 48.65115247 121.74736703 46.3125 123 C20.37943366 137.74863381 2.49165385 162.45134502 -5.75 190.875 C-5.95109375 191.65617188 -6.1521875 192.43734375 -6.359375 193.2421875 C-7 195 -7 195 -9 196 C-11.36196797 195.59332714 -13.64806221 195.11832196 -15.9765625 194.56640625 C-16.66181 194.40961899 -17.3470575 194.25283173 -18.05307007 194.09129333 C-20.24525822 193.58814592 -22.43508616 193.07544631 -24.625 192.5625 C-26.10922966 192.22007256 -27.59360311 191.8782677 -29.078125 191.53710938 C-32.72045886 190.69862626 -36.36070426 189.85156868 -40 189 C-39.1875 186.5625 -39.1875 186.5625 -38 184 C-37.01 183.67 -36.02 183.34 -35 183 C-33.82917122 180.07085835 -33.82917122 180.07085835 -33 177 C-32.67 176.34 -32.34 175.68 -32 175 C-31.31442235 167.69466443 -31.24166148 160.91826592 -36 155 C-41.78517815 149.68042975 -46.50914274 147.62711099 -54.3671875 147.71875 C-59.81354675 148.30055692 -63.61641083 150.89312867 -67.8125 154.25 C-71.8320751 159.30318013 -73.48132939 164.52157837 -73.23828125 170.96875 C-72.83314905 174.42233593 -71.95469212 177.65857759 -71 181 C-79.33669128 179.70384383 -87.54438819 178.06882309 -95.765625 176.1796875 C-96.92503601 175.91616486 -98.08444702 175.65264221 -99.2789917 175.38113403 C-102.93674045 174.5489911 -106.59337857 173.71208117 -110.25 172.875 C-112.74862566 172.30567238 -115.24732295 171.73665903 -117.74609375 171.16796875 C-123.83156129 169.78227484 -129.91612737 168.39267868 -136 167 C-133.7705574 156.93075102 -131.33048339 147.1294027 -127.75 137.4375 C-127.36013916 136.37031738 -126.97027832 135.30313477 -126.56860352 134.20361328 C-123.54624806 126.10196205 -120.0857806 118.38898225 -115.96191406 110.79443359 C-114.99982668 108.99967668 -114.08545267 107.18702525 -113.1796875 105.36328125 C-101.99958912 83.1480117 -86.16178386 63.82016432 -69 46 C-68.2471875 45.2059375 -67.494375 44.411875 -66.71875 43.59375 C-62.02890107 38.75013553 -56.94467297 34.47742488 -51.65039062 30.30859375 C-50.50456462 29.40006899 -49.36568802 28.48273786 -48.23242188 27.55859375 C-35.99273821 17.57795493 -22.8196413 9.61081695 -9 2 C-8.36239746 1.6380957 -7.72479492 1.27619141 -7.06787109 0.90332031 C-3.35478478 -1.11826159 -3.35478478 -1.11826159 0 0 Z " fill="#6CAD2E" transform="translate(142,26)"/>
<path d="M0 0 C4.44964592 3.05802359 6.97962713 6.68888139 8.6875 11.8125 C9.42851615 18.76104486 8.71687593 23.10421744 4.6875 28.8125 C3.924375 29.6375 3.16125 30.4625 2.375 31.3125 C0.29834449 33.83866732 0.29834449 33.83866732 0.9375 37.625 C1.30875 39.2028125 1.30875 39.2028125 1.6875 40.8125 C5.67377022 42.18976416 9.63912074 43.34742038 13.7421875 44.3203125 C14.85078125 44.58457031 15.959375 44.84882813 17.1015625 45.12109375 C18.24367188 45.39050781 19.38578125 45.65992188 20.5625 45.9375 C21.7278125 46.21464844 22.893125 46.49179688 24.09375 46.77734375 C26.95777153 47.45813575 29.82235822 48.13644102 32.6875 48.8125 C32.61821289 49.47169434 32.54892578 50.13088867 32.47753906 50.81005859 C29.03864632 85.59672271 35.14255222 117.61702171 56.6875 145.8125 C53.79671286 149.74065095 50.75842301 152.4609933 46.8125 155.3125 C43.48319467 157.74155468 40.21284939 160.14493669 37.125 162.875 C34.6875 164.8125 34.6875 164.8125 31.6875 164.8125 C31.51734375 164.01585937 31.3471875 163.21921875 31.171875 162.3984375 C29.45044831 154.87177401 28.01541423 149.32541483 21.625 144.5 C16.06277044 141.30467664 10.97048693 141.2100218 4.6875 141.8125 C-1.39470361 143.53544505 -6.13602967 147.36267345 -9.3125 152.8125 C-11.68550624 159.24901692 -11.65572451 164.42188769 -9.3125 170.8125 C-5.79058811 177.46500025 -0.40183779 181.4493874 6.6875 183.8125 C6.46482585 187.12189854 5.53265747 187.95237971 3.01953125 190.22265625 C1.85391332 191.11671324 0.6801309 192.0001891 -0.5 192.875 C-1.78792173 193.85786157 -3.07567772 194.84094036 -4.36328125 195.82421875 C-5.02279785 196.32228027 -5.68231445 196.8203418 -6.36181641 197.33349609 C-9.33044009 199.58429989 -12.25964738 201.88406493 -15.1875 204.1875 C-15.7544458 204.6311792 -16.3213916 205.0748584 -16.90551758 205.53198242 C-20.12377216 208.0582068 -23.30897773 210.61967669 -26.46875 213.21875 C-27.1714502 213.7957666 -27.87415039 214.3727832 -28.59814453 214.96728516 C-29.94636821 216.077309 -31.29134915 217.19128879 -32.63232422 218.31005859 C-36.9738414 221.88483223 -41.47527178 224.945227 -46.3125 227.8125 C-51.2496266 222.4331331 -55.54386087 216.88396678 -59.5 210.75 C-60.33084106 209.46331421 -60.33084106 209.46331421 -61.1784668 208.15063477 C-79.962098 178.52075634 -92.9861933 145.55879973 -98.3125 110.8125 C-98.48837646 109.70253662 -98.66425293 108.59257324 -98.84545898 107.44897461 C-100.49991024 95.879586 -100.66605417 84.42323146 -100.625 72.75 C-100.62417419 71.75925476 -100.62334839 70.76850952 -100.62249756 69.7477417 C-100.59008495 52.86759491 -100.30107713 36.07959933 -95.3125 19.8125 C-85.32457067 21.66981326 -75.40303728 23.76597127 -65.51171875 26.08203125 C-64.64749802 26.2840062 -63.78327728 26.48598114 -62.89286804 26.69407654 C-58.49188136 27.7243964 -54.09328295 28.76391554 -49.69702148 29.81420898 C-48.04024688 30.20445566 -46.38342898 30.59451857 -44.7265625 30.984375 C-43.96780319 31.16857498 -43.20904388 31.35277496 -42.42729187 31.54255676 C-38.3289719 32.50014208 -34.55137482 33.20270264 -30.3125 32.8125 C-29.3225 31.8225 -29.3225 31.8225 -28.3125 30.8125 C-28.60453478 27.4248966 -29.04097788 24.1542938 -29.71484375 20.82421875 C-30.70700919 15.26140353 -29.83176333 10.88009508 -27.3125 5.8125 C-20.034475 -2.99774079 -10.1454143 -5.89761467 0 0 Z " fill="#DED01C" transform="translate(100.3125,178.1875)"/>
<path d="M0 0 C4.22019213 2.78149027 6.16877471 5.29113496 8 10 C8.53274082 12.60362054 8.99246294 15.19818274 9.375 17.828125 C9.85277636 20.36855096 9.85277636 20.36855096 13 22 C15.35767944 22.59567425 15.35767944 22.59567425 18 22 C20.28173275 20.35808732 22.25492158 18.75964717 24.3125 16.875 C25.46105176 15.86583401 26.61078847 14.858015 27.76171875 13.8515625 C28.31520996 13.36204102 28.86870117 12.87251953 29.43896484 12.36816406 C31.45537125 10.60089138 33.51387813 8.90286351 35.625 7.25 C36.21539062 6.78078125 36.80578125 6.3115625 37.4140625 5.828125 C37.93742187 5.55484375 38.46078125 5.2815625 39 5 C42.72617422 6.24205807 44.39291457 8.1110675 47 11 C47 11.66 47 12.32 47 13 C47.56203125 13.24621094 48.1240625 13.49242187 48.703125 13.74609375 C51.40362417 15.22034585 53.44029694 17.02895709 55.75 19.0625 C77.39356683 36.96449277 102.52358656 42.10774595 130 45 C130 58.86 130 72.72 130 87 C126.7 86.01 123.4 85.02 120 84 C114.7503307 83.64441895 110.3364871 84.33175645 105.625 86.6875 C100.65371119 91.06696871 96.51550127 95.42393491 95.74609375 102.25390625 C95.41160249 109.32138278 96.81543152 114.45283214 101.578125 119.7578125 C105.99325676 123.87462455 110.25301857 126.06563184 116.453125 125.95703125 C121.42798575 125.56231924 125.15261065 124.61579645 130 123 C130 140.49 130 157.98 130 176 C105.43239283 176 105.43239283 176 97.3125 174.875 C96.32958984 174.74375732 95.34667969 174.61251465 94.33398438 174.47729492 C44.57651332 167.37076652 -2.13346821 146.37186562 -38.890625 111.8984375 C-40.85396412 109.96221419 -40.85396412 109.96221419 -43 109 C-43 108.34 -43 107.68 -43 107 C-43.59167969 106.73445313 -44.18335937 106.46890625 -44.79296875 106.1953125 C-51.95293826 102.31752371 -59.65348079 93.36234227 -63 86 C-54.75229759 78.91684029 -46.36710606 72.0599563 -37.78369141 65.38818359 C-35.97117168 63.97756395 -34.1625705 62.56208392 -32.35546875 61.14453125 C-31.75677979 60.67499023 -31.15809082 60.20544922 -30.54125977 59.72167969 C-29.3586926 58.79135699 -28.17814438 57.85846148 -26.99975586 56.92285156 C-24.33543107 54.81025152 -21.66377353 52.75905181 -18.8984375 50.77734375 C-14.16333447 47.6366571 -14.16333447 47.6366571 -11.390625 42.953125 C-11.30452076 40.80796962 -11.30452076 40.80796962 -12 38 C-12.73605469 37.63648438 -13.47210938 37.27296875 -14.23046875 36.8984375 C-21.518435 33.14373891 -26.74962809 29.80089258 -30 22 C-30.7151077 15.85193122 -30.71642176 10.15503664 -27 5 C-18.95255726 -3.24614503 -10.52339226 -5.55952798 0 0 Z " fill="#E95F1A" transform="translate(121,324)"/>
<path d="M0 0 C4.12902316 17.12168271 5.39132661 34.05172441 5.3125 51.625 C5.30926727 52.93310638 5.30926727 52.93310638 5.30596924 54.26763916 C5.25034038 68.35653096 4.64436015 82.12669023 2 96 C1.80664062 97.0209375 1.61328125 98.041875 1.4140625 99.09375 C-5.75245389 135.54566051 -20.39472977 168.06077262 -41.4375 198.5 C-42.18181274 199.58740479 -42.18181274 199.58740479 -42.94116211 200.69677734 C-43.41303955 201.36402832 -43.88491699 202.0312793 -44.37109375 202.71875 C-44.78286865 203.30591797 -45.19464355 203.89308594 -45.61889648 204.49804688 C-47.23458502 206.25511173 -48.82416522 207.05778454 -51 208 C-51.96679688 207.154375 -52.93359375 206.30875 -53.9296875 205.4375 C-60.39053936 199.80214596 -66.85947448 194.21119762 -73.59375 188.90234375 C-76.33631353 186.73411577 -79.0446476 184.52696185 -81.75 182.3125 C-82.6678125 181.56871094 -83.585625 180.82492187 -84.53125 180.05859375 C-85.98624877 178.84532737 -87.41645499 177.59907075 -88.78125 176.28515625 C-90.36977172 174.68197929 -90.36977172 174.68197929 -93 173 C-96.78673743 173.0508054 -96.78673743 173.0508054 -100 174 C-100.24234375 174.86882812 -100.4846875 175.73765625 -100.734375 176.6328125 C-104.82437316 190.69611386 -104.82437316 190.69611386 -111.1875 195.3125 C-116.33120765 197.95058182 -121.56716771 198.52472853 -127.1875 197.3125 C-133.65469788 194.29447432 -138.03305971 190.91735072 -140.75 184.125 C-141.60764774 176.83499419 -141.03499215 172.17194523 -137 166 C-133.55747672 161.67225645 -129.9066505 159.82321643 -124.890625 157.796875 C-123.02459742 157.150249 -123.02459742 157.150249 -122 156 C-121.63239269 153.67182036 -121.29758419 151.3381615 -121 149 C-121.80244141 148.66162109 -121.80244141 148.66162109 -122.62109375 148.31640625 C-125.77060518 146.57357316 -128.36026042 144.28817985 -131.0625 141.9375 C-132.2153706 140.94571273 -133.36903063 139.95484243 -134.5234375 138.96484375 C-135.1019043 138.46839355 -135.68037109 137.97194336 -136.27636719 137.46044922 C-139.74184593 134.52411865 -143.3027397 131.70469927 -146.85546875 128.875 C-149 127 -149 127 -151 124 C-150.35933594 123.1028125 -149.71867187 122.205625 -149.05859375 121.28125 C-129.9167243 93.90073181 -124.2554229 62.89878454 -128 30 C-119.28431139 27.60352034 -110.53882883 25.36250245 -101.75 23.25 C-100.83323486 23.02739502 -99.91646973 22.80479004 -98.97192383 22.57543945 C-98.10978271 22.37007568 -97.2476416 22.16471191 -96.359375 21.953125 C-95.59077148 21.76911133 -94.82216797 21.58509766 -94.03027344 21.39550781 C-92 21 -92 21 -89 21 C-89.23396484 22.051875 -89.23396484 22.051875 -89.47265625 23.125 C-91.21874209 31.63572304 -91.53223576 38.3124972 -87.30859375 46.171875 C-84.45304957 50.16111284 -80.5887576 52.47041413 -76 54 C-69.59548757 54.57877816 -63.43849484 54.78372142 -57.75390625 51.47265625 C-52.21447209 46.82150552 -49.38043285 40.88041506 -48.6875 33.8125 C-49.3220713 26.07073012 -53.0011292 20.69315841 -58 15 C-58 14.34 -58 13.68 -58 13 C-50.73365036 11.30242251 -43.46675356 9.60720901 -36.19914436 7.91503143 C-32.82470919 7.12925504 -29.45046962 6.34265822 -26.07666016 5.55419922 C-22.20010878 4.64828709 -18.32273649 3.74592026 -14.4453125 2.84375 C-13.23070343 2.55939087 -12.01609436 2.27503174 -10.76467896 1.98205566 C-9.64366791 1.72178589 -8.52265686 1.46151611 -7.36767578 1.19335938 C-6.37728302 0.96241577 -5.38689026 0.73147217 -4.3664856 0.49353027 C-2 0 -2 0 0 0 Z " fill="#CE138D" transform="translate(495,198)"/>
<path d="M0 0 C5.75868734 1.57310483 10.50052812 4.43258758 15.5625 7.5 C16.89269165 8.30304565 16.89269165 8.30304565 18.24975586 9.12231445 C25.59529504 13.62411778 32.34752179 18.52938871 39 24 C40.51400391 25.22783203 40.51400391 25.22783203 42.05859375 26.48046875 C43.89831778 27.97814582 45.73369672 29.48119455 47.5625 30.9921875 C49.28280605 32.40923447 51.0366021 33.78608993 52.8125 35.1328125 C53.8953125 36.05707031 53.8953125 36.05707031 55 37 C55 37.66 55 38.32 55 39 C55.56332031 39.23847656 56.12664062 39.47695312 56.70703125 39.72265625 C64.43098686 44.02543902 70.35664942 52.41612603 75.7890625 59.23046875 C77.23776804 61.04519001 78.71113988 62.84055226 80.2109375 64.61328125 C104.01560717 92.80302165 120.6570874 128.18226002 129 164 C122.3929097 166.36461461 115.7572515 168.07937672 108.91015625 169.59375 C106.80654133 170.07117728 104.70302854 170.54905476 102.59960938 171.02734375 C99.31320188 171.76961897 96.02606764 172.5080937 92.73706055 173.23876953 C89.54224835 173.95062228 86.35110123 174.67728759 83.16015625 175.40625 C82.17064468 175.62196655 81.18113312 175.83768311 80.16163635 176.05993652 C79.2498613 176.27025513 78.33808624 176.48057373 77.39868164 176.69726562 C76.59531876 176.87696899 75.79195587 177.05667236 74.96424866 177.24182129 C72.63404059 177.92441076 72.63404059 177.92441076 71 181 C71 186.73926492 72.79137772 189.47766746 76.625 193.421875 C79.9071212 197.18885501 79.389428 202.19600523 79.34375 206.91796875 C78.82649128 211.55566342 77.13845009 214.59932954 74 218 C68.6250773 222.2779997 64.10604792 223.36991085 57.37890625 223.28125 C52.13544261 222.66133312 48.26102402 220.29420887 44.625 216.5625 C39.36829026 208.2730731 40.59076577 199.33617677 42 190 C39.78077758 187.97112526 38.67092946 186.98537595 35.60302734 187.05224609 C34.29519287 187.34736084 34.29519287 187.34736084 32.9609375 187.6484375 C31.99124023 187.85823242 31.02154297 188.06802734 30.02246094 188.28417969 C29.02504883 188.52040039 28.02763672 188.75662109 27 189 C26.05157227 189.21301758 25.10314453 189.42603516 24.12597656 189.64550781 C20.31814246 190.50931596 16.5197689 191.41064083 12.72265625 192.3203125 C11.79582031 192.536875 10.86898437 192.7534375 9.9140625 192.9765625 C8.6758374 193.27167725 8.6758374 193.27167725 7.41259766 193.57275391 C4.89357313 194.0188471 2.55283889 194.07446491 0 194 C-0.51046875 192.329375 -0.51046875 192.329375 -1.03125 190.625 C-5.84298318 175.30218278 -11.89747888 161.61419764 -22 149 C-22.77214844 148.00226563 -23.54429687 147.00453125 -24.33984375 145.9765625 C-31.95297878 136.42706927 -40.76483681 129.35808494 -50.80859375 122.5078125 C-52.91615715 121.05768866 -54.96425076 119.54883883 -57 118 C-55.32067048 112.1899059 -52.60791608 106.99131421 -49.875 101.625 C-49.40707031 100.69816406 -48.93914062 99.77132812 -48.45703125 98.81640625 C-47.30830944 96.54240594 -46.15588119 94.27036718 -45 92 C-43.68 92 -42.36 92 -41 92 C-39.578125 93.609375 -39.578125 93.609375 -38.25 95.75 C-35.14763354 100.13529996 -32.18352202 102.49327239 -27 104 C-19.59580793 105.12813434 -13.57583358 103.11299257 -7.25 99.375 C-2.82212539 94.70113236 -0.78674316 89.35461426 -0.5 82.9375 C-0.76613295 77.22451276 -2.49383934 72.63347898 -6.4609375 68.46484375 C-13.3128848 62.49982364 -20.16892558 61.77922314 -29 62 C-28.38723985 58.18133734 -27.25533882 55.1094172 -25.55859375 51.640625 C-25.06133789 50.61565918 -24.56408203 49.59069336 -24.05175781 48.53466797 C-23.51905273 47.45072754 -22.98634766 46.36678711 -22.4375 45.25 C-21.33661341 42.98728371 -20.23635436 40.724262 -19.13671875 38.4609375 C-18.59837402 37.35588867 -18.0600293 36.25083984 -17.50537109 35.11230469 C-15.54219777 31.05350911 -13.64384926 26.96643365 -11.75 22.875 C-8.12711505 15.09029637 -4.12149324 7.5304943 0 0 Z " fill="#681D68" transform="translate(365,28)"/>
<path d="M0 0 C2.73441775 1.11383622 4.56260596 2.64054942 6.81640625 4.5546875 C7.76515625 5.35132813 8.71390625 6.14796875 9.69140625 6.96875 C10.22507812 7.42024414 10.75875 7.87173828 11.30859375 8.33691406 C14.95160212 11.39946456 18.63909342 14.40850386 22.31640625 17.4296875 C23.81011822 18.65988628 25.30362526 19.89033394 26.796875 21.12109375 C27.43906982 21.65033447 28.08126465 22.1795752 28.74291992 22.72485352 C29.20029541 23.10182373 29.6576709 23.47879395 30.12890625 23.8671875 C29.12890625 26.8671875 29.12890625 26.8671875 27.1328125 28.03515625 C26.32714844 28.37160156 25.52148438 28.70804687 24.69140625 29.0546875 C23.88832031 29.39886719 23.08523438 29.74304688 22.2578125 30.09765625 C20.12890625 30.8671875 20.12890625 30.8671875 18.12890625 30.8671875 C17.84273437 31.45371094 17.5565625 32.04023438 17.26171875 32.64453125 C16.12890625 34.8671875 16.12890625 34.8671875 15.05859375 36.62109375 C11.75897309 42.27933215 11.22363314 47.40768669 12.12890625 53.8671875 C13.78014198 59.86323724 17.16397348 63.17943296 22.12890625 66.73828125 C27.06081973 69.52211523 32.9008661 69.70152943 38.3203125 68.30078125 C42.38108358 66.87837046 42.38108358 66.87837046 45.734375 64.26171875 C46.19457031 63.80152344 46.65476562 63.34132813 47.12890625 62.8671875 C47.78890625 62.8671875 48.44890625 62.8671875 49.12890625 62.8671875 C49.56203125 61.784375 49.56203125 61.784375 50.00390625 60.6796875 C50.69789556 58.94471421 51.40377385 57.21437694 52.12890625 55.4921875 C53.33233957 52.33317502 54.23444369 49.12558684 55.12890625 45.8671875 C59.05760893 47.56738402 62.24494494 50.15760433 65.56640625 52.8046875 C66.18040283 53.29050293 66.79439941 53.77631836 67.42700195 54.27685547 C72.71222412 58.48308765 77.87020128 62.83060128 83.0078125 67.21484375 C91.30794385 74.38286637 91.30794385 74.38286637 100.12890625 80.8671875 C100.12890625 82.1871875 100.12890625 83.5071875 100.12890625 84.8671875 C99.46890625 84.8671875 98.80890625 84.8671875 98.12890625 84.8671875 C97.87109375 85.43953125 97.61328125 86.011875 97.34765625 86.6015625 C96.01524683 89.07847745 94.47834507 91.0013041 92.62890625 93.1171875 C92.02046875 93.82359375 91.41203125 94.53 90.78515625 95.2578125 C89.12890625 96.8671875 89.12890625 96.8671875 87.12890625 96.8671875 C86.80599609 97.68896484 86.80599609 97.68896484 86.4765625 98.52734375 C84.66971152 101.66445604 82.21938509 103.89530902 79.56640625 106.3046875 C78.99631836 106.82474365 78.42623047 107.3447998 77.83886719 107.88061523 C33.50703726 147.63560519 -25.17920851 171.8671875 -84.87109375 171.8671875 C-85.20109375 153.0571875 -85.53109375 134.2471875 -85.87109375 114.8671875 C-90.48641399 116.78907263 -90.48641399 116.78907263 -94.94140625 119.03515625 C-100.14068142 121.27694899 -106.98951201 120.45953731 -112.24609375 118.8046875 C-117.97581992 114.5756039 -121.75246437 110.07613241 -122.87109375 102.8671875 C-123.15156586 96.6631445 -121.6655323 92.35285389 -117.66015625 87.59765625 C-113.08512629 83.17246351 -108.63502225 81.64451039 -102.30859375 81.3671875 C-97.04078021 81.54933873 -94.21758952 82.99850029 -89.87109375 85.8671875 C-88.22109375 86.1971875 -86.57109375 86.5271875 -84.87109375 86.8671875 C-84.87109375 71.6871875 -84.87109375 56.5071875 -84.87109375 40.8671875 C-81.44734375 40.3309375 -78.02359375 39.7946875 -74.49609375 39.2421875 C-51.36475973 35.33280495 -31.60969726 26.938584 -13.80859375 11.3671875 C-10.87109375 8.8671875 -10.87109375 8.8671875 -8.87109375 8.8671875 C-8.64421875 8.3103125 -8.41734375 7.7534375 -8.18359375 7.1796875 C-3.949523 -0.28034192 -3.949523 -0.28034192 0 0 Z " fill="#E21B2A" transform="translate(340.87109375,328.1328125)"/>
</svg>
